<?xml version="1.0" encoding="UTF-8" standalone="no"?>
<!-- Created with Inkscape (http://www.inkscape.org/) -->

<svg width="261.38669mm" height="261.38669mm" viewBox="0 0 261.38669 261.38668" version="1.1" id="svg5" inkscape:version="1.2-dev (9ee32be, 2021-06-19)" sodipodi:docname="CrowdtainerLogo.svg" xmlns:inkscape="http://www.inkscape.org/namespaces/inkscape" xmlns:sodipodi="http://sodipodi.sourceforge.net/DTD/sodipodi-0.dtd" xmlns="http://www.w3.org/2000/svg" xmlns:svg="http://www.w3.org/2000/svg">
  <sodipodi:namedview id="namedview7" pagecolor="#ffffff" bordercolor="#666666" borderopacity="1.0" inkscape:pageshadow="2" inkscape:pageopacity="0" inkscape:pagecheckerboard="0" inkscape:document-units="mm" showgrid="true" fit-margin-top="0" fit-margin-left="0" fit-margin-right="0" fit-margin-bottom="0" inkscape:zoom="0.22056492" inkscape:cx="-63.473375" inkscape:cy="568.99347" inkscape:window-width="2560" inkscape:window-height="1387" inkscape:window-x="0" inkscape:window-y="25" inkscape:window-maximized="0" inkscape:current-layer="layer1" />
  <defs id="defs2" />
  <g inkscape:groupmode="layer" id="layer3" inkscape:label="WhiteCircle" style="display:inline" transform="translate(0.53692627,-0.07620239)">
    <path style="fill:#ffffff;fill-opacity:1;stroke-width:0.652309" d="m 113.19146,259.73061 c -50.740006,-6.53492 -92.850176,-45.54271 -103.2664137,-95.65845 -8.2042166,-39.47305 3.1769427,-79.418948 30.9396727,-108.592824 17.476007,-18.364293 39.882746,-30.689373 65.011481,-35.760313 10.03868,-2.025787 29.76156,-2.509053 39.80019,-0.975215 19.09817,2.918073 34.95092,9.033565 50.8351,19.610567 33.4661,22.284497 53.81552,60.391667 53.81552,100.777215 0,60.30906 -44.52505,111.5978 -104.4532,120.32042 -7.5204,1.09461 -25.1778,1.24512 -32.68235,0.2786 z m 15.12437,-43.46345 -0.0294,-29.19084 -34.621859,-20.41455 c -19.04203,-11.22801 -34.774999,-20.26143 -34.962152,-20.07428 -0.187156,0.18715 -0.05146,0.7143 0.301554,1.17143 0.353009,0.45714 15.974298,22.62643 34.713976,49.26512 18.739661,26.63868 34.197011,48.43396 34.349651,48.43396 0.15264,0 0.26432,-13.13588 0.24818,-29.19084 z m 34.74487,-16.64914 c 40.33925,-56.97749 37.30392,-52.61074 36.87075,-53.0439 -0.20133,-0.20134 -16.02369,8.83445 -35.16078,20.07953 l -34.79472,20.4456 -0.1698,29.17938 c -0.0934,16.04865 0.0534,29.17251 0.32616,29.16412 0.27277,-0.008 15.09054,-20.62952 32.92839,-45.82473 z m -35.01317,-91.66005 c -0.3487,-0.34871 -70.131317,31.97244 -70.121779,32.47824 0.0034,0.17938 15.775755,9.65369 35.049714,21.054 l 35.043555,20.72785 0.16851,-36.97579 c 0.0927,-20.33669 0.0297,-37.11462 -0.14,-37.2843 z m 37.06117,53.45987 c 19.32302,-11.40725 35.17413,-20.95041 35.2247,-21.20701 0.0968,-0.49137 -69.48913,-32.39009 -70.65788,-32.39009 -0.46125,0 -0.67804,11.88812 -0.67804,37.18163 0,20.4499 0.22016,37.17584 0.48924,37.16878 0.26908,-0.007 16.29897,-9.34606 35.62198,-20.75331 z m -64.2112,-45.36943 c 14.86108,-6.67784 27.38475,-12.14155 27.83039,-12.14155 0.44563,0 13.53093,5.46485 29.07844,12.14406 15.54752,6.67922 28.78191,12.2907 29.40976,12.46996 1.07076,0.30571 1.14154,-1.01348 1.14154,-21.27638 v -21.602321 h -60.01246 -60.012436 v 22.481531 22.4815 l 2.772315,-1.20764 c 1.524772,-0.6642 14.931379,-6.67132 29.792451,-13.34916 z m 67.89085,-46.061653 v -14.350804 h -39.46471 -39.4647 v 13.698495 13.698492 l 6.03386,0.09079 c 3.318616,0.0499 19.38988,0.286723 35.71392,0.526192 16.32404,0.239469 31.36792,0.492154 33.43085,0.56152 l 3.75078,0.126119 z m -23.48313,-28.049299 v -9.132331 h -15.98158 -15.98158 v 9.132331 9.132329 h 15.98158 15.98158 z" id="path37132" />
    <path style="fill:#ffffff;fill-opacity:1;stroke-width:1.00674" d="m 69.865219,181.50832 c -14.242785,-5.39123 -22.327406,-7.10459 -36.704047,-7.77863 l -13.549035,-0.63523 -1.977668,-7.04718 c -1.631782,-5.81466 -1.991269,-10.3926 -2.055431,-26.17523 -0.06936,-17.06036 0.180307,-20.10749 2.309603,-28.18871 8.863719,-33.64014 30.751862,-60.336942 61.914593,-75.516817 15.460895,-7.531255 27.708046,-10.6015 45.043786,-11.292038 16.75218,-0.667293 26.94877,0.666748 41.16183,5.385284 40.97671,13.603694 69.94154,46.691316 77.98312,89.083131 2.91979,15.39185 1.61192,37.40668 -3.05744,51.46481 l -1.5955,4.8036 -13.2584,0.008 c -17.85348,0.0103 -35.65111,2.90908 -44.21563,7.20175 -2.0764,1.04073 -3.77528,1.66001 -3.77528,1.37621 0,-0.28383 3.98467,-6.0692 8.85483,-12.8564 16.7517,-23.34571 22.48635,-31.95008 21.91271,-32.87826 -0.31623,-0.51166 -3.97054,-2.7939 -8.12069,-5.07164 l -7.54575,-4.14134 v -22.06284 c 0,-13.154549 -0.39396,-22.306349 -0.97569,-22.665881 -0.53662,-0.331655 -5.44823,-0.87549 -10.91469,-1.208521 l -9.93901,-0.60551 0.0922,-15.713784 0.0922,-15.713786 -11.32583,-0.284657 -11.32582,-0.284655 v -11.041166 -11.041165 h -19.63142 -19.63142 v 11.074138 11.074135 h -11.054951 c -11.0271,0 -11.056588,0.0065 -11.703079,2.582336 -0.356468,1.420283 -0.324035,8.442293 0.07207,15.604463 l 0.720198,13.022133 h -10.460672 c -6.793759,0 -10.884159,0.423484 -11.66876,1.208087 -0.86377,0.863767 -1.208088,7.301077 -1.208088,22.586133 0,11.75793 -0.411739,22.46099 -0.914974,23.78461 -0.632018,1.66232 -3.122705,3.39372 -8.053919,5.59864 -3.926417,1.75564 -7.138942,3.44083 -7.138942,3.74488 0,0.8865 9.599921,14.90932 20.823102,30.41677 5.712206,7.89276 10.38583,14.575 10.38583,14.84942 0,0.83583 -1.198013,0.50205 -9.564029,-2.66468 z" id="path37727" />
    <circle style="fill:#ffffff;stroke-width:0.272671" id="path1799" cx="130.15642" cy="130.76955" r="130.69334" />
  </g>
  <g inkscape:label="SkyOcean" inkscape:groupmode="layer" id="layer1" transform="translate(15.981461,-2.1413961)" style="display:inline">
    <path style="fill:#1795b8;fill-opacity:1;stroke-width:0.288545" d="m 110.88675,258.0789 c -13.821482,-0.66405 -24.651246,-2.61495 -36.706922,-6.61246 -14.225101,-4.71686 -27.645537,-12.0387 -39.174773,-21.37272 -4.494492,-3.63873 -6.037158,-5.00765 -5.851939,-5.19287 0.06824,-0.0683 1.541398,-0.3312 3.27368,-0.58436 3.804848,-0.55604 14.326596,-0.65459 18.153959,-0.17004 1.4283,0.18083 3.895362,0.47334 5.482362,0.65002 5.658462,0.62997 16.240269,3.67641 23.227895,6.68716 1.82505,0.78636 4.941339,2.11233 6.925087,2.94659 7.600739,3.19646 11.138629,4.84501 12.5409,5.84364 3.875761,2.76014 9.916811,7.89563 12.523001,10.64581 l 2.9013,3.06157 2.24809,-2.02388 c 1.23645,-1.11313 4.26069,-3.60394 6.72054,-5.53515 2.45984,-1.93119 6.03059,-4.77962 7.93499,-6.32982 5.28188,-4.29952 8.43385,-6.33716 14.46431,-9.35061 10.4195,-5.20668 14.15028,-6.48511 22.61376,-7.74904 3.91038,-0.58396 5.52409,-0.66605 12.84027,-0.65317 5.98672,0.0109 9.4352,0.15012 12.11889,0.49048 2.06311,0.26166 4.69299,0.5604 5.84419,0.66388 1.1512,0.1035 2.15091,0.2817 2.22156,0.39602 0.20357,0.32938 -5.0897,4.8885 -9.79703,8.43824 -6.72842,5.07382 -12.30358,8.47689 -20.48671,12.50509 -12.51608,6.16113 -23.25859,9.57265 -37.22234,11.82077 -6.03228,0.97119 -17.42091,1.68305 -22.79507,1.42485 z m 14.13675,-18.87844 c 0.49548,-0.81595 9.76706,-13.71533 12.16884,-16.93028 l 2.412,-3.22866 6.2722,-4.23983 c 7.83609,-5.29697 9.43374,-6.14715 16.98499,-9.03842 7.48315,-2.8652 20.24012,-6.2029 28.81791,-7.53983 8.81317,-1.37363 24.09085,-1.92857 27.55607,-1.00092 0.87285,0.23366 2.02287,0.42638 2.55564,0.42826 1.21164,0.004 1.21417,-0.002 -1.43661,3.96186 -2.95849,4.42478 -6.74625,9.34103 -10.3482,13.43125 -4.54912,5.16577 -4.163,4.89076 -6.37394,4.53975 -1.01964,-0.16188 -3.47695,-0.4814 -5.4607,-0.71004 -1.98375,-0.22865 -4.64558,-0.5422 -5.91518,-0.6968 -4.28593,-0.52188 -15.03851,-0.71545 -18.89971,-0.34024 -8.11845,0.78892 -13.51112,1.83688 -18.17835,3.53264 -3.37556,1.22644 -13.78485,6.17052 -17.10322,8.12348 -3.26263,1.92016 -7.64277,5.14069 -10.92307,8.03124 -1.3139,1.15779 -2.2718,1.91223 -2.12867,1.67654 z m -28.419772,-5.78721 c -0.87285,-0.46403 -3.46975,-1.70105 -5.7709,-2.74892 -2.30115,-1.04787 -5.092828,-2.35492 -6.203727,-2.90456 -3.023182,-1.49578 -10.30911,-4.40551 -13.417357,-5.35839 -6.250061,-1.91603 -10.199811,-2.77479 -17.601263,-3.82688 -1.825049,-0.25942 -4.032421,-0.61202 -4.90527,-0.78356 -1.950009,-0.38321 -19.361955,-0.3768 -23.660714,0.009 l -3.029726,0.27171 -1.127106,-1.19154 c -3.481476,-3.68048 -12.0126931,-14.69408 -11.6573714,-15.0494 0.07251,-0.0725 1.2257714,-0.32528 2.5627964,-0.56172 1.80374,-0.31894 4.763313,-0.43123 11.470681,-0.43518 9.184686,-0.005 12.123975,0.22901 21.978897,1.75279 10.014123,1.54842 22.499723,6.11134 34.733876,12.69369 5.472675,2.94446 7.884884,4.53446 9.013824,5.94144 0.83186,1.03672 8.68055,11.93554 9.158284,12.71734 0.278017,0.45497 0.337267,0.47512 -1.544924,-0.52552 z m -18.034079,-23.95552 c -3.880766,-2.08228 -11.264522,-5.29457 -16.245285,-7.06748 -6.383462,-2.27222 -12.054779,-3.68642 -18.38015,-4.58329 -11.148802,-1.58078 -11.353162,-1.59614 -20.989431,-1.57679 -8.425696,0.0169 -9.635983,0.0808 -12.770372,0.67469 -1.9043988,0.3608 -3.5967227,0.60899 -3.7607177,0.55152 -0.862606,-0.30227 -8.741684,-16.11755 -9.8032143,-19.67749 l -0.2048723,-0.68707 6.4515844,0.15763 c 9.3713429,0.22897 22.1377549,1.76548 35.4781849,4.26998 3.471555,0.65174 5.878995,1.33914 10.531904,3.00716 10.480169,3.75704 14.335325,5.48744 18.877942,8.47346 2.105004,1.38368 2.339463,1.66319 7.81463,9.31618 6.14295,8.5864 6.171721,8.6287 5.830144,8.57299 -0.128391,-0.0209 -1.402047,-0.66511 -2.830347,-1.43149 z m 69.995111,-3.21929 c 0.81433,-1.15058 2.07639,-3.00088 2.80457,-4.11178 2.26948,-3.46224 10.80627,-11.50933 15.49521,-14.60636 3.86582,-2.55336 9.5868,-4.76632 14.42725,-5.58066 0.63481,-0.10677 3.03694,-0.64954 5.33809,-1.20612 4.63361,-1.12071 13.79068,-2.53739 19.3023,-2.98622 5.88629,-0.47935 14.28443,-0.35608 19.79559,0.29057 5.35671,0.62852 6.49227,0.82566 6.49227,1.12711 0,0.43919 -3.30708,7.84158 -4.65073,10.40996 -2.26411,4.32784 -1.94433,4.09696 -5.01554,3.62114 -1.4283,-0.22129 -3.28904,-0.55528 -4.13497,-0.74218 -3.08875,-0.68244 -19.80765,0.0311 -26.5951,1.13495 -4.39432,0.7147 -9.59057,1.84235 -16.71505,3.62739 -10.8747,2.72464 -21.12921,6.66121 -26.04596,9.99868 -0.90382,0.61351 -1.71873,1.11546 -1.81093,1.11546 -0.0922,0 0.49865,-0.94137 1.313,-2.09194 z m -89.471918,-22.74749 c -2.301148,-1.11798 -6.586047,-2.85314 -9.521995,-3.85592 -2.935949,-1.00277 -5.987315,-2.08105 -6.780814,-2.39616 -2.096706,-0.83266 -10.028352,-3.24862 -12.241347,-3.7287 -5.270915,-1.14344 -9.074068,-1.90304 -11.419367,-2.2808 -3.994131,-0.64334 -10.6410871,-0.80146 -17.0241758,-0.40498 -3.1739979,0.19715 -6.2253649,0.37409 -6.7808146,0.39319 -1.0025123,0.0345 -1.0147263,0.02 -1.6677187,-1.98509 -2.1327928,-6.54877 -3.8465229,-14.74506 -4.8566319,-23.22789 -0.623255,-5.23405 -0.710178,-19.43601 -0.151879,-24.8149 0.793324,-7.64323 2.1086834,-14.83751 3.9145865,-21.410654 4.9116929,-17.877516 14.2272188,-35.319016 26.2206905,-49.093098 29.203637,-33.539375 73.549992,-49.3894923 117.495364,-41.9947596 3.74486,0.6301546 4.50128,0.7873759 9.08916,1.8891846 10.75385,2.582604 22.60686,7.275026 32.40772,12.829715 17.08636,9.6838 32.24405,23.869031 42.97668,40.219492 9.37854,14.28756 15.93548,30.624125 18.6865,46.55732 0.48314,2.79819 1.09255,6.32115 1.35425,7.8288 0.38338,2.20864 0.47973,4.8994 0.496,13.85018 0.0201,11.03347 -0.20335,14.53497 -1.27019,19.90962 -0.14175,0.71415 -0.4696,2.53199 -0.72854,4.03964 -0.89986,5.23921 -1.37204,7.02657 -3.81133,14.42726 -0.54923,1.66635 -1.08518,3.1192 -1.19101,3.22855 -0.10578,0.10935 -1.42593,0.008 -2.93357,-0.22613 -3.97364,-0.616 -5.42154,-0.6497 -16.4642,-0.3832 -9.17683,0.22148 -10.54571,0.3232 -17.16843,1.27571 -10.07348,1.44883 -21.82233,4.33455 -25.74438,6.32327 -1.06638,0.54071 -6.32978,3.38219 -8.0358,4.41083 -1.70603,1.02865 25.60239,-44.5117 25.60239,-44.58281 4.52966,-9.43421 -6.50902,-13.77834 -12.8485,-20.1151 l -0.45953,-48.559961 -19.88698,-0.191816 -0.41038,-35.488992 -24.0304,-0.0023 -0.22234,-21.730359 -35.610408,-0.117014 -0.02054,21.874253 -24.18212,0.0294 -0.239134,34.728263 -21.715776,0.323844 -0.463752,48.681542 c -9.38963,7.93738 -17.157404,15.91401 -12.812057,22.26257 19.250158,26.95471 26.92837,43.55984 26.723757,43.54648 -0.04904,-0.003 -1.971925,-0.92054 -4.273074,-2.03853 z" id="path211" sodipodi:nodetypes="ssssssssssscssssscssssssssscssssccsssssssssssssssscssscssssssssssssscssssssssssssssssssssssscsssssssssssssssssssssscssssccccccccccccccccc" />
  </g>
  <g inkscape:groupmode="layer" id="layer2" inkscape:label="Ship" style="display:inline" transform="translate(0.53692627,-0.07620239)">
    <path style="fill:#ce4d5a;fill-opacity:1;stroke:#000000;stroke-width:0.275851px;stroke-linecap:butt;stroke-linejoin:miter;stroke-opacity:1" d="m 144.73841,14.569979 -30.92215,-0.112367 v 19.115438 l 31.02664,0.296433 z" id="path1940" sodipodi:nodetypes="ccccc" />
    <path style="fill:#ce4d5a;fill-opacity:1;stroke:#000000;stroke-width:0.275851px;stroke-linecap:butt;stroke-linejoin:miter;stroke-opacity:1" d="m 90.037511,37.433239 78.556969,0.05727 -0.0409,32.122502 -78.436103,-1.057335 z" id="path1944" sodipodi:nodetypes="ccccc" />
    <path style="fill:#392c35;fill-opacity:1;stroke:#000000;stroke-width:0.275851px;stroke-linecap:butt;stroke-linejoin:miter;stroke-opacity:1" d="m 56.800136,132.59884 71.382004,-20.50803 -0.13153,46.94944 z" id="path1952" sodipodi:nodetypes="cccc" />
    <path style="fill:#000000;fill-opacity:1;stroke:#000000;stroke-width:0.275851px;stroke-linecap:butt;stroke-linejoin:miter;stroke-opacity:1" d="m 129.74296,158.85568 0.0125,-46.63798 70.43295,21.16501 z" id="path1954" sodipodi:nodetypes="cccc" />
    <path style="fill:#5d535c;fill-opacity:1;stroke:#000000;stroke-width:0.275851px;stroke-linecap:butt;stroke-linejoin:miter;stroke-opacity:1" d="m 57.134527,135.79991 70.667993,108.76221 0.36215,-81.72743 z" id="path1956" sodipodi:nodetypes="cccc" />
    <path style="fill:#362634;fill-opacity:1;stroke:#000000;stroke-width:0.275851px;stroke-linecap:butt;stroke-linejoin:miter;stroke-opacity:1" d="m 129.77155,163.03927 0.35022,82.13461 69.92524,-107.26146 z" id="path1958" sodipodi:nodetypes="cccc" />
    <path style="fill:#ce4d5a;fill-opacity:1;stroke:#000000;stroke-width:0.275851px;stroke-linecap:butt;stroke-linejoin:miter;stroke-opacity:1" d="m 127.21186,72.166009 -58.415803,0.157956 -0.02869,52.212425 60.281423,-18.28224 59.03206,18.22726 -0.0489,-51.957054 z" id="path30774" sodipodi:nodetypes="ccccccc" />
  </g>
</svg>
