<svg width="293.01mm" height="291.23mm" version="1.1" viewBox="0 0 293.01 291.23" xmlns="http://www.w3.org/2000/svg">
 <g transform="translate(16.279 15.161)" fill="#fff">
  <path d="m113.19 259.73c-50.74-6.5349-92.85-45.543-103.27-95.658-8.2042-39.473 3.1769-79.419 30.94-108.59 17.476-18.364 39.883-30.689 65.011-35.76 10.039-2.0258 29.762-2.5091 39.8-0.97522 19.098 2.9181 34.951 9.0336 50.835 19.611 33.466 22.284 53.816 60.392 53.816 100.78 0 60.309-44.525 111.6-104.45 120.32-7.5204 1.0946-25.178 1.2451-32.682 0.2786zm15.124-43.463-0.0294-29.191-34.622-20.415c-19.042-11.228-34.775-20.261-34.962-20.074-0.18716 0.18715-0.05146 0.7143 0.30155 1.1714 0.35301 0.45714 15.974 22.626 34.714 49.265 18.74 26.639 34.197 48.434 34.35 48.434s0.26432-13.136 0.24818-29.191zm34.745-16.649c40.339-56.977 37.304-52.611 36.871-53.044-0.20133-0.20134-16.024 8.8344-35.161 20.08l-34.795 20.446-0.1698 29.179c-0.0934 16.049 0.0534 29.173 0.32616 29.164 0.27277-8e-3 15.091-20.63 32.928-45.825zm-35.013-91.66c-0.3487-0.34871-70.131 31.972-70.122 32.478 0.0034 0.17938 15.776 9.6537 35.05 21.054l35.044 20.728 0.16851-36.976c0.0927-20.337 0.0297-37.115-0.14-37.284zm37.061 53.46c19.323-11.407 35.174-20.95 35.225-21.207 0.0968-0.49137-69.489-32.39-70.658-32.39-0.46125 0-0.67804 11.888-0.67804 37.182 0 20.45 0.22016 37.176 0.48924 37.169 0.26908-7e-3 16.299-9.3461 35.622-20.753zm-64.211-45.369c14.861-6.6778 27.385-12.142 27.83-12.142 0.44563 0 13.531 5.4648 29.078 12.144 15.548 6.6792 28.782 12.291 29.41 12.47 1.0708 0.30571 1.1415-1.0135 1.1415-21.276v-21.602h-120.02v44.963l2.7723-1.2076c1.5248-0.6642 14.931-6.6713 29.792-13.349zm67.891-46.062v-14.351h-78.929v27.397l6.0339 0.09079c3.3186 0.0499 19.39 0.28672 35.714 0.52619s31.368 0.49215 33.431 0.56152l3.7508 0.12612zm-23.483-28.049v-9.1323h-31.963v18.265h31.963z" stroke-width=".65231"/>
  <path d="m69.865 181.51c-14.243-5.3912-22.327-7.1046-36.704-7.7786l-13.549-0.63523-1.9777-7.0472c-1.6318-5.8147-1.9913-10.393-2.0554-26.175-0.06936-17.06 0.18031-20.107 2.3096-28.189 8.8637-33.64 30.752-60.337 61.915-75.517 15.461-7.5313 27.708-10.602 45.044-11.292 16.752-0.66729 26.949 0.66675 41.162 5.3853 40.977 13.604 69.942 46.691 77.983 89.083 2.9198 15.392 1.6119 37.407-3.0574 51.465l-1.5955 4.8036-13.258 8e-3c-17.853 0.0103-35.651 2.9091-44.216 7.2018-2.0764 1.0407-3.7753 1.66-3.7753 1.3762 0-0.28383 3.9847-6.0692 8.8548-12.856 16.752-23.346 22.486-31.95 21.913-32.878-0.31623-0.51166-3.9705-2.7939-8.1207-5.0716l-7.5458-4.1413v-22.063c0-13.155-0.39396-22.306-0.97569-22.666-0.53662-0.33166-5.4482-0.87549-10.915-1.2085l-9.939-0.60551 0.1844-31.428-22.652-0.56931v-22.082h-39.263v22.148h-11.055c-11.027 0-11.057 0.0065-11.703 2.5823-0.35647 1.4203-0.32404 8.4423 0.07207 15.604l0.7202 13.022h-10.461c-6.7938 0-10.884 0.42348-11.669 1.2081-0.86377 0.86377-1.2081 7.3011-1.2081 22.586 0 11.758-0.41174 22.461-0.91497 23.785-0.63202 1.6623-3.1227 3.3937-8.0539 5.5986-3.9264 1.7556-7.1389 3.4408-7.1389 3.7449 0 0.8865 9.5999 14.909 20.823 30.417 5.7122 7.8928 10.386 14.575 10.386 14.849 0 0.83583-1.198 0.50205-9.564-2.6647z" stroke-width="1.0067"/>
  <circle cx="130.16" cy="130.77" r="130.69" stroke-width=".27267"/>
 </g>
 <g transform="translate(31.724 13.096)">
  <path d="m110.89 258.08c-13.821-0.66405-24.651-2.615-36.707-6.6125-14.225-4.7169-27.646-12.039-39.175-21.373-4.4945-3.6387-6.0372-5.0076-5.8519-5.1929 0.06824-0.0683 1.5414-0.3312 3.2737-0.58436 3.8048-0.55604 14.327-0.65459 18.154-0.17004 1.4283 0.18083 3.8954 0.47334 5.4824 0.65002 5.6585 0.62997 16.24 3.6764 23.228 6.6872 1.825 0.78636 4.9413 2.1123 6.9251 2.9466 7.6007 3.1965 11.139 4.845 12.541 5.8436 3.8758 2.7601 9.9168 7.8956 12.523 10.646l2.9013 3.0616 2.2481-2.0239c1.2364-1.1131 4.2607-3.6039 6.7205-5.5352 2.4598-1.9312 6.0306-4.7796 7.935-6.3298 5.2819-4.2995 8.4338-6.3372 14.464-9.3506 10.42-5.2067 14.15-6.4851 22.614-7.749 3.9104-0.58396 5.5241-0.66605 12.84-0.65317 5.9867 0.0109 9.4352 0.15012 12.119 0.49048 2.0631 0.26166 4.693 0.5604 5.8442 0.66388 1.1512 0.1035 2.1509 0.2817 2.2216 0.39602 0.20357 0.32938-5.0897 4.8885-9.797 8.4382-6.7284 5.0738-12.304 8.4769-20.487 12.505-12.516 6.1611-23.259 9.5726-37.222 11.821-6.0323 0.97119-17.421 1.683-22.795 1.4248zm14.137-18.878c0.49548-0.81595 9.7671-13.715 12.169-16.93l2.412-3.2287 6.2722-4.2398c7.8361-5.297 9.4337-6.1472 16.985-9.0384 7.4832-2.8652 20.24-6.2029 28.818-7.5398 8.8132-1.3736 24.091-1.9286 27.556-1.0009 0.87285 0.23366 2.0229 0.42638 2.5556 0.42826 1.2116 4e-3 1.2142-2e-3 -1.4366 3.9619-2.9585 4.4248-6.7462 9.341-10.348 13.431-4.5491 5.1658-4.163 4.8908-6.3739 4.5398-1.0196-0.16188-3.477-0.4814-5.4607-0.71004-1.9838-0.22865-4.6456-0.5422-5.9152-0.6968-4.2859-0.52188-15.039-0.71545-18.9-0.34024-8.1184 0.78892-13.511 1.8369-18.178 3.5326-3.3756 1.2264-13.785 6.1705-17.103 8.1235-3.2626 1.9202-7.6428 5.1407-10.923 8.0312-1.3139 1.1578-2.2718 1.9122-2.1287 1.6765zm-28.42-5.7872c-0.87285-0.46403-3.4698-1.701-5.7709-2.7489s-5.0928-2.3549-6.2037-2.9046c-3.0232-1.4958-10.309-4.4055-13.417-5.3584-6.2501-1.916-10.2-2.7748-17.601-3.8269-1.825-0.25942-4.0324-0.61202-4.9053-0.78356-1.95-0.38321-19.362-0.3768-23.661 9e-3l-3.0297 0.27171-1.1271-1.1915c-3.4815-3.6805-12.013-14.694-11.657-15.049 0.07251-0.0725 1.2258-0.32528 2.5628-0.56172 1.8037-0.31894 4.7633-0.43123 11.471-0.43518 9.1847-5e-3 12.124 0.22901 21.979 1.7528 10.014 1.5484 22.5 6.1113 34.734 12.694 5.4727 2.9445 7.8849 4.5345 9.0138 5.9414 0.83186 1.0367 8.6806 11.936 9.1583 12.717 0.27802 0.45497 0.33727 0.47512-1.5449-0.52552zm-18.034-23.956c-3.8808-2.0823-11.265-5.2946-16.245-7.0675-6.3835-2.2722-12.055-3.6864-18.38-4.5833-11.149-1.5808-11.353-1.5961-20.989-1.5768-8.4257 0.0169-9.636 0.0808-12.77 0.67469-1.9044 0.3608-3.5967 0.60899-3.7607 0.55152-0.86261-0.30227-8.7417-16.118-9.8032-19.677l-0.20487-0.68707 6.4516 0.15763c9.3713 0.22897 22.138 1.7655 35.478 4.27 3.4716 0.65174 5.879 1.3391 10.532 3.0072 10.48 3.757 14.335 5.4874 18.878 8.4735 2.105 1.3837 2.3395 1.6632 7.8146 9.3162 6.143 8.5864 6.1717 8.6287 5.8301 8.573-0.12839-0.0209-1.402-0.66511-2.8303-1.4315zm69.995-3.2193c0.81433-1.1506 2.0764-3.0009 2.8046-4.1118 2.2695-3.4622 10.806-11.509 15.495-14.606 3.8658-2.5534 9.5868-4.7663 14.427-5.5807 0.63481-0.10677 3.0369-0.64954 5.3381-1.2061 4.6336-1.1207 13.791-2.5374 19.302-2.9862 5.8863-0.47935 14.284-0.35608 19.796 0.29057 5.3567 0.62852 6.4923 0.82566 6.4923 1.1271 0 0.43919-3.3071 7.8416-4.6507 10.41-2.2641 4.3278-1.9443 4.097-5.0155 3.6211-1.4283-0.22129-3.289-0.55528-4.135-0.74218-3.0888-0.68244-19.808 0.0311-26.595 1.135-4.3943 0.7147-9.5906 1.8424-16.715 3.6274-10.875 2.7246-21.129 6.6612-26.046 9.9987-0.90382 0.61351-1.7187 1.1155-1.8109 1.1155s0.49865-0.94137 1.313-2.0919zm-89.472-22.747c-2.3011-1.118-6.586-2.8531-9.522-3.8559-2.9359-1.0028-5.9873-2.081-6.7808-2.3962-2.0967-0.83266-10.028-3.2486-12.241-3.7287-5.2709-1.1434-9.0741-1.903-11.419-2.2808-3.9941-0.64334-10.641-0.80146-17.024-0.40498-3.174 0.19715-6.2254 0.37409-6.7808 0.39319-1.0025 0.0345-1.0147 0.02-1.6677-1.9851-2.1328-6.5488-3.8465-14.745-4.8566-23.228-0.62326-5.234-0.71018-19.436-0.15188-24.815 0.79332-7.6432 2.1087-14.838 3.9146-21.411 4.9117-17.878 14.227-35.319 26.221-49.093 29.204-33.539 73.55-49.389 117.5-41.995 3.7449 0.63015 4.5013 0.78738 9.0892 1.8892 10.754 2.5826 22.607 7.275 32.408 12.83 17.086 9.6838 32.244 23.869 42.977 40.219 9.3785 14.288 15.935 30.624 18.686 46.557 0.48314 2.7982 1.0926 6.3212 1.3542 7.8288 0.38338 2.2086 0.47973 4.8994 0.496 13.85 0.0201 11.033-0.20335 14.535-1.2702 19.91-0.14175 0.71415-0.4696 2.532-0.72854 4.0396-0.89986 5.2392-1.372 7.0266-3.8113 14.427-0.54923 1.6664-1.0852 3.1192-1.191 3.2286-0.10578 0.10935-1.4259 8e-3 -2.9336-0.22613-3.9736-0.616-5.4215-0.6497-16.464-0.3832-9.1768 0.22148-10.546 0.3232-17.168 1.2757-10.073 1.4488-21.822 4.3346-25.744 6.3233-1.0664 0.54071-6.3298 3.3822-8.0358 4.4108-1.706 1.0286 25.602-44.512 25.602-44.583 4.5297-9.4342-6.509-13.778-12.848-20.115l-0.45953-48.56-19.887-0.19182-0.41038-35.489-24.03-0.0023-0.22234-21.73-35.61-0.11701-0.02054 21.874-24.182 0.0294-0.23913 34.728-21.716 0.32384-0.46375 48.682c-9.3896 7.9374-17.157 15.914-12.812 22.263 19.25 26.955 26.928 43.56 26.724 43.546-0.04904-3e-3 -1.9719-0.92054-4.2731-2.0385z" fill="#355571" stroke-width=".28854"/>
 </g>
 <g transform="translate(16.279 15.161)" stroke="#000" stroke-width=".27585px">
  <path d="m144.74 14.57-30.922-0.11237v19.115l31.027 0.29643z" fill="#3d9f53"/>
  <path d="m90.038 37.433 78.557 0.05727-0.0409 32.123-78.436-1.0573z" fill="#3d9f53"/>
  <path d="m56.8 132.6 71.382-22.859-0.70416 60.371z" fill="#355571"/>
  <path d="m129.62 169.99 0.0779-60.185 70.495 23.578z" fill="#274157"/>
  <path d="m57.135 135.8 70.668 108.76-0.3613-69.67z" fill="#355571"/>
  <path d="m129.58 174.87 0.5411 70.3 69.925-107.26z" fill="#162635"/>
  <path d="m127.21 72.166-58.416 0.15796-0.02869 52.212 60.135-19.997 59.179 19.942-0.0489-51.957z" fill="#3d9f53"/>
 </g>
</svg>
